<svg width="372" height="313" viewBox="0 0 372 313" fill="none" xmlns="http://www.w3.org/2000/svg">
<path d="M0 35.8646V306.479H91.2917V189.104L0 35.8646Z" fill="white"/>
<path d="M3.26042 3.26042H107.594L189.104 136.938L251.052 32.6042V179.323C239.097 164.108 234.75 146.719 189.104 136.938C156.5 136.938 131.069 146.067 107.594 182.583L3.26042 3.26042Z" fill="white"/>
<path d="M371.688 0H270.615V306.479H371.688V0Z" fill="white"/>
<circle cx="182.324" cy="212.927" r="61.9479" fill="white" fill-opacity="0.64" stroke="white" stroke-width="13.0417"/>
<path d="M179.062 157.5H188.844V165.651C188.844 168.352 186.654 170.542 183.953 170.542C181.252 170.542 179.062 168.352 179.062 165.651V157.5Z" fill="white"/>
<path d="M237.828 209.762V219.543H229.677C226.976 219.543 224.786 217.354 224.786 214.653C224.786 211.952 226.976 209.762 229.677 209.762H237.828Z" fill="white"/>
<path d="M188.844 268.354H179.062V260.203C179.062 257.502 181.252 255.312 183.953 255.312C186.654 255.312 188.844 257.502 188.844 260.203V268.354Z" fill="white"/>
<path d="M126.895 209.667V219.448H135.046C137.747 219.448 139.936 217.258 139.936 214.557C139.936 211.856 137.747 209.667 135.046 209.667H126.895Z" fill="white"/>
<path d="M169.657 215.285L184.981 178.507C185.204 177.972 185.962 177.972 186.185 178.507L201.509 215.285C201.688 215.714 201.373 216.188 200.907 216.188H175.802H170.259C169.794 216.188 169.478 215.714 169.657 215.285Z" fill="white"/>
<path d="M201.468 217.11L186.178 250.746C185.947 251.256 185.223 251.256 184.991 250.746L169.702 217.11C169.505 216.678 169.821 216.188 170.295 216.188H195.366H200.874C201.348 216.188 201.664 216.678 201.468 217.11Z" fill="white"/>
<path d="M182.583 313L171.289 293.438H193.878L182.583 313Z" fill="white"/>
<circle cx="185.583" cy="216.187" r="6.52083" fill="white"/>
</svg>
