<svg xmlns="http://www.w3.org/2000/svg" xmlns:xlink="http://www.w3.org/1999/xlink" viewBox="0 0 525.18 355.36"><defs><style>.cls-1{fill:#172430;}.cls-1,.cls-2{fill-rule:evenodd;}.cls-2{fill:url(#linear-gradient);}</style><linearGradient id="linear-gradient" x1="263.9" y1="180.28" x2="264.09" y2="-1.47" gradientUnits="userSpaceOnUse"><stop offset="0" stop-color="#0085b2"></stop><stop offset="1" stop-color="#38bfb2"></stop></linearGradient></defs><g id="Layer_2" data-name="Layer 2"><g id="Background"><path class="cls-1" d="M170.39,39A36.09,36.09,0,1,0,206.47,2.69,36.21,36.21,0,0,0,170.39,39Z"></path><path class="cls-2" d="M173.06,149.34a36.21,36.21,0,0,0,36.09,36.33,35.73,35.73,0,0,0,21.42-7.09c9.66-3.67,32.68-15,63.87.31a35.76,35.76,0,0,0,24.29,9.47,36.33,36.33,0,1,0-32-53.18c-6.34,4.19-6.95,15.79-38.78,9.19C261.24,106,302.89,77.72,321.2,71.79a36.3,36.3,0,1,0-43.9-35.46c0,1.23.06,2.44.18,3.64-10.6,56.87-60,70.7-71.65,73.2A36.24,36.24,0,0,0,173.06,149.34Z"></path><path class="cls-1" d="M0,353.27H82.36V334.69H30l51.82-63.38L82,255.86H1.13v18.58H51.64L0,337.81Zm150.48-79.18c13.78,0,22.09,8.78,24.73,21.18H123.86C127.26,282.29,137.64,274.09,150.48,274.09Zm.19,61c-14,0-24.16-9.53-27-23.07h73.62c0-35.4-17.55-58.2-47.75-58.2-27.75,0-49.65,21.46-49.65,50.48,0,29.84,23,51.11,51,51.11,14.16,0,31.14-6,39.64-15.05L176,325.13C170.49,330.85,159.73,335,150.67,335Zm111-61c13.78,0,22.09,8.78,24.73,21.18H235C238.44,282.29,248.82,274.09,261.66,274.09Zm.19,61c-14,0-24.16-9.53-27-23.07h73.62c0-35.4-17.55-58.2-47.75-58.2-27.75,0-49.65,21.46-49.65,50.48,0,29.84,23,51.11,51,51.11,14.16,0,31.14-6,39.64-15.05l-14.54-15.18C281.67,330.85,270.91,335,261.85,335Zm98.53,18.32h21.71l41.33-97.6H398.88l-27.74,71-28.31-71H318.48Zm118-79.27c13.78,0,22.08,8.78,24.73,21.18H451.75C455.15,282.29,465.53,274.09,478.37,274.09Zm.19,61c-14,0-24.17-9.53-27-23.07h73.62c0-35.4-17.55-58.2-47.76-58.2-27.75,0-49.64,21.46-49.64,50.48,0,29.84,23,51.11,51,51.11,14.16,0,31.15-6,39.65-15.05l-14.54-15.18C498.38,330.85,487.62,335,478.56,335Z"></path></g></g></svg>